<svg xmlns="http://www.w3.org/2000/svg" xmlns:xlink="http://www.w3.org/1999/xlink" width="1020" zoomAndPan="magnify" viewBox="0 0 765 764.999999" height="1020" preserveAspectRatio="xMidYMid meet" version="1.2"><defs><clipPath id="60345a8b66"><path d="M 76.5 76.5 L 688.5 76.5 L 688.5 688.5 L 76.5 688.5 Z M 76.5 76.5 "/></clipPath><clipPath id="8d126bdac9"><path d="M 382.5 76.5 C 213.5 76.5 76.5 213.5 76.5 382.5 C 76.5 551.5 213.5 688.5 382.5 688.5 C 551.5 688.5 688.5 551.5 688.5 382.5 C 688.5 213.5 551.5 76.5 382.5 76.5 Z M 382.5 76.5 "/></clipPath></defs><g id="a507cb7aca"><g clip-rule="nonzero" clip-path="url(#60345a8b66)"><g clip-rule="nonzero" clip-path="url(#8d126bdac9)"><path style=" stroke:none;fill-rule:nonzero;fill:#000000;fill-opacity:1;" d="M 76.5 76.5 L 688.5 76.5 L 688.5 688.5 L 76.5 688.5 Z M 76.5 76.5 "/></g></g><g style="fill:#de2a2a;fill-opacity:1;"><g transform="translate(155.14879, 404.896098)"><path style="stroke:none" d="M 10.0625 -39.78125 C 7.8125 -39.78125 6.003906 -40.394531 4.640625 -41.625 C 3.273438 -42.863281 2.59375 -44.414062 2.59375 -46.28125 C 2.59375 -48.1875 3.273438 -49.765625 4.640625 -51.015625 C 6.003906 -52.273438 7.8125 -52.90625 10.0625 -52.90625 C 12.269531 -52.90625 14.050781 -52.273438 15.40625 -51.015625 C 16.769531 -49.765625 17.453125 -48.1875 17.453125 -46.28125 C 17.453125 -44.414062 16.769531 -42.863281 15.40625 -41.625 C 14.050781 -40.394531 12.269531 -39.78125 10.0625 -39.78125 Z M 16.359375 -36.40625 L 16.359375 0 L 3.640625 0 L 3.640625 -36.40625 Z M 16.359375 -36.40625 "/></g></g><g style="fill:#de2a2a;fill-opacity:1;"><g transform="translate(175.140698, 404.896098)"><path style="stroke:none" d="M 32.84375 -23.5 C 35.519531 -22.894531 37.648438 -21.5625 39.234375 -19.5 C 40.816406 -17.445312 41.609375 -15.101562 41.609375 -12.46875 C 41.609375 -8.570312 40.265625 -5.519531 37.578125 -3.3125 C 34.898438 -1.101562 31.132812 0 26.28125 0 L 3.640625 0 L 3.640625 -45.765625 L 25.578125 -45.765625 C 30.242188 -45.765625 33.90625 -44.722656 36.5625 -42.640625 C 39.226562 -40.566406 40.5625 -37.644531 40.5625 -33.875 C 40.5625 -31.195312 39.859375 -28.957031 38.453125 -27.15625 C 37.046875 -25.363281 35.175781 -24.144531 32.84375 -23.5 Z M 16.359375 -27.578125 L 22.78125 -27.578125 C 25.976562 -27.578125 27.578125 -28.898438 27.578125 -31.546875 C 27.578125 -34.273438 25.976562 -35.640625 22.78125 -35.640625 L 16.359375 -35.640625 Z M 23.75 -10.25 C 26.957031 -10.25 28.5625 -11.59375 28.5625 -14.28125 C 28.5625 -15.664062 28.140625 -16.722656 27.296875 -17.453125 C 26.453125 -18.191406 25.25 -18.5625 23.6875 -18.5625 L 16.359375 -18.5625 L 16.359375 -10.25 Z M 23.75 -10.25 "/></g></g><g style="fill:#de2a2a;fill-opacity:1;"><g transform="translate(218.694502, 404.896098)"><path style="stroke:none" d="M 20.578125 0.453125 C 16.941406 0.453125 13.679688 -0.300781 10.796875 -1.8125 C 7.921875 -3.332031 5.660156 -5.5 4.015625 -8.3125 C 2.378906 -11.125 1.5625 -14.429688 1.5625 -18.234375 C 1.5625 -22.003906 2.394531 -25.296875 4.0625 -28.109375 C 5.726562 -30.921875 8 -33.082031 10.875 -34.59375 C 13.75 -36.101562 17.003906 -36.859375 20.640625 -36.859375 C 24.273438 -36.859375 27.53125 -36.101562 30.40625 -34.59375 C 33.28125 -33.082031 35.550781 -30.921875 37.21875 -28.109375 C 38.882812 -25.296875 39.71875 -22.003906 39.71875 -18.234375 C 39.71875 -14.472656 38.882812 -11.175781 37.21875 -8.34375 C 35.550781 -5.507812 33.269531 -3.332031 30.375 -1.8125 C 27.476562 -0.300781 24.210938 0.453125 20.578125 0.453125 Z M 20.578125 -10.578125 C 22.347656 -10.578125 23.828125 -11.234375 25.015625 -12.546875 C 26.210938 -13.867188 26.8125 -15.765625 26.8125 -18.234375 C 26.8125 -20.703125 26.210938 -22.582031 25.015625 -23.875 C 23.828125 -25.175781 22.367188 -25.828125 20.640625 -25.828125 C 18.910156 -25.828125 17.457031 -25.175781 16.28125 -23.875 C 15.113281 -22.582031 14.53125 -20.703125 14.53125 -18.234375 C 14.53125 -15.722656 15.09375 -13.816406 16.21875 -12.515625 C 17.351562 -11.222656 18.804688 -10.578125 20.578125 -10.578125 Z M 20.578125 -10.578125 "/></g></g><g style="fill:#de2a2a;fill-opacity:1;"><g transform="translate(259.976492, 404.896098)"><path style="stroke:none" d="M 1.5625 -18.234375 C 1.5625 -22.003906 2.238281 -25.296875 3.59375 -28.109375 C 4.957031 -30.921875 6.816406 -33.082031 9.171875 -34.59375 C 11.535156 -36.101562 14.171875 -36.859375 17.078125 -36.859375 C 19.578125 -36.859375 21.734375 -36.359375 23.546875 -35.359375 C 25.367188 -34.367188 26.78125 -33.03125 27.78125 -31.34375 L 27.78125 -36.40625 L 40.5 -36.40625 L 40.5 0 L 27.78125 0 L 27.78125 -5.0625 C 26.78125 -3.375 25.359375 -2.03125 23.515625 -1.03125 C 21.679688 -0.0390625 19.535156 0.453125 17.078125 0.453125 C 14.171875 0.453125 11.535156 -0.300781 9.171875 -1.8125 C 6.816406 -3.332031 4.957031 -5.507812 3.59375 -8.34375 C 2.238281 -11.175781 1.5625 -14.472656 1.5625 -18.234375 Z M 27.78125 -18.234375 C 27.78125 -20.578125 27.140625 -22.414062 25.859375 -23.75 C 24.585938 -25.09375 23.019531 -25.765625 21.15625 -25.765625 C 19.25 -25.765625 17.664062 -25.101562 16.40625 -23.78125 C 15.15625 -22.46875 14.53125 -20.617188 14.53125 -18.234375 C 14.53125 -15.898438 15.15625 -14.050781 16.40625 -12.6875 C 17.664062 -11.320312 19.25 -10.640625 21.15625 -10.640625 C 23.019531 -10.640625 24.585938 -11.3125 25.859375 -12.65625 C 27.140625 -14 27.78125 -15.859375 27.78125 -18.234375 Z M 27.78125 -18.234375 "/></g></g><g style="fill:#de2a2a;fill-opacity:1;"><g transform="translate(304.114472, 404.896098)"><path style="stroke:none" d="M 16.359375 -29.984375 C 17.785156 -32.066406 19.515625 -33.710938 21.546875 -34.921875 C 23.578125 -36.128906 25.765625 -36.734375 28.109375 -36.734375 L 28.109375 -23.171875 L 24.53125 -23.171875 C 21.757812 -23.171875 19.703125 -22.628906 18.359375 -21.546875 C 17.023438 -20.460938 16.359375 -18.582031 16.359375 -15.90625 L 16.359375 0 L 3.640625 0 L 3.640625 -36.40625 L 16.359375 -36.40625 Z M 16.359375 -29.984375 "/></g></g><g style="fill:#de2a2a;fill-opacity:1;"><g transform="translate(333.128704, 404.896098)"><path style="stroke:none" d="M 1.5625 -18.234375 C 1.5625 -22.003906 2.238281 -25.296875 3.59375 -28.109375 C 4.957031 -30.921875 6.828125 -33.082031 9.203125 -34.59375 C 11.585938 -36.101562 14.234375 -36.859375 17.140625 -36.859375 C 19.472656 -36.859375 21.554688 -36.375 23.390625 -35.40625 C 25.234375 -34.4375 26.675781 -33.109375 27.71875 -31.421875 L 27.71875 -48.03125 L 40.5 -48.03125 L 40.5 0 L 27.71875 0 L 27.71875 -5.0625 C 26.71875 -3.375 25.304688 -2.03125 23.484375 -1.03125 C 21.671875 -0.0390625 19.535156 0.453125 17.078125 0.453125 C 14.171875 0.453125 11.535156 -0.300781 9.171875 -1.8125 C 6.816406 -3.332031 4.957031 -5.507812 3.59375 -8.34375 C 2.238281 -11.175781 1.5625 -14.472656 1.5625 -18.234375 Z M 27.78125 -18.234375 C 27.78125 -20.578125 27.140625 -22.414062 25.859375 -23.75 C 24.585938 -25.09375 23.019531 -25.765625 21.15625 -25.765625 C 19.25 -25.765625 17.664062 -25.101562 16.40625 -23.78125 C 15.15625 -22.46875 14.53125 -20.617188 14.53125 -18.234375 C 14.53125 -15.898438 15.15625 -14.050781 16.40625 -12.6875 C 17.664062 -11.320312 19.25 -10.640625 21.15625 -10.640625 C 23.019531 -10.640625 24.585938 -11.3125 25.859375 -12.65625 C 27.140625 -14 27.78125 -15.859375 27.78125 -18.234375 Z M 27.78125 -18.234375 "/></g></g><g style="fill:#ffffff;fill-opacity:1;"><g transform="translate(377.270321, 404.896098)"><path style="stroke:none" d=""/></g></g><g style="fill:#ffffff;fill-opacity:1;"><g transform="translate(389.667901, 404.896098)"><path style="stroke:none" d="M 26.8125 0 L 17.71875 -16.875 L 16.359375 -16.875 L 16.359375 0 L 3.640625 0 L 3.640625 -45.765625 L 23.6875 -45.765625 C 27.363281 -45.765625 30.476562 -45.125 33.03125 -43.84375 C 35.582031 -42.5625 37.507812 -40.804688 38.8125 -38.578125 C 40.113281 -36.359375 40.765625 -33.863281 40.765625 -31.09375 C 40.765625 -27.976562 39.910156 -25.238281 38.203125 -22.875 C 36.492188 -20.519531 33.992188 -18.84375 30.703125 -17.84375 L 41.015625 0 Z M 16.359375 -25.578125 L 22.65625 -25.578125 C 24.382812 -25.578125 25.679688 -25.988281 26.546875 -26.8125 C 27.410156 -27.632812 27.84375 -28.820312 27.84375 -30.375 C 27.84375 -31.84375 27.398438 -33 26.515625 -33.84375 C 25.628906 -34.6875 24.34375 -35.109375 22.65625 -35.109375 L 16.359375 -35.109375 Z M 16.359375 -25.578125 "/></g></g><g style="fill:#ffffff;fill-opacity:1;"><g transform="translate(432.572617, 404.896098)"><path style="stroke:none" d="M 38.421875 -18.625 C 38.421875 -17.632812 38.359375 -16.640625 38.234375 -15.640625 L 14.15625 -15.640625 C 14.28125 -13.648438 14.828125 -12.164062 15.796875 -11.1875 C 16.773438 -10.21875 18.019531 -9.734375 19.53125 -9.734375 C 21.65625 -9.734375 23.171875 -10.6875 24.078125 -12.59375 L 37.640625 -12.59375 C 37.078125 -10.082031 35.984375 -7.84375 34.359375 -5.875 C 32.742188 -3.90625 30.703125 -2.359375 28.234375 -1.234375 C 25.765625 -0.109375 23.039062 0.453125 20.0625 0.453125 C 16.46875 0.453125 13.273438 -0.300781 10.484375 -1.8125 C 7.691406 -3.332031 5.503906 -5.5 3.921875 -8.3125 C 2.347656 -11.125 1.5625 -14.429688 1.5625 -18.234375 C 1.5625 -22.046875 2.335938 -25.347656 3.890625 -28.140625 C 5.453125 -30.929688 7.628906 -33.082031 10.421875 -34.59375 C 13.210938 -36.101562 16.425781 -36.859375 20.0625 -36.859375 C 23.644531 -36.859375 26.820312 -36.125 29.59375 -34.65625 C 32.363281 -33.1875 34.523438 -31.078125 36.078125 -28.328125 C 37.640625 -25.578125 38.421875 -22.34375 38.421875 -18.625 Z M 25.4375 -21.8125 C 25.4375 -23.363281 24.914062 -24.582031 23.875 -25.46875 C 22.84375 -26.363281 21.546875 -26.8125 19.984375 -26.8125 C 18.429688 -26.8125 17.15625 -26.390625 16.15625 -25.546875 C 15.164062 -24.703125 14.519531 -23.457031 14.21875 -21.8125 Z M 25.4375 -21.8125 "/></g></g><g style="fill:#ffffff;fill-opacity:1;"><g transform="translate(472.556433, 404.896098)"><path style="stroke:none" d="M 16.359375 -31.34375 C 17.347656 -33.03125 18.75 -34.367188 20.5625 -35.359375 C 22.382812 -36.359375 24.53125 -36.859375 27 -36.859375 C 29.894531 -36.859375 32.519531 -36.101562 34.875 -34.59375 C 37.238281 -33.082031 39.101562 -30.921875 40.46875 -28.109375 C 41.832031 -25.296875 42.515625 -22.003906 42.515625 -18.234375 C 42.515625 -14.472656 41.832031 -11.175781 40.46875 -8.34375 C 39.101562 -5.507812 37.238281 -3.332031 34.875 -1.8125 C 32.519531 -0.300781 29.894531 0.453125 27 0.453125 C 24.53125 0.453125 22.398438 -0.0390625 20.609375 -1.03125 C 18.816406 -2.03125 17.398438 -3.375 16.359375 -5.0625 L 16.359375 17.390625 L 3.640625 17.390625 L 3.640625 -36.40625 L 16.359375 -36.40625 Z M 29.59375 -18.234375 C 29.59375 -20.617188 28.953125 -22.46875 27.671875 -23.78125 C 26.398438 -25.101562 24.835938 -25.765625 22.984375 -25.765625 C 21.117188 -25.765625 19.546875 -25.09375 18.265625 -23.75 C 16.992188 -22.414062 16.359375 -20.578125 16.359375 -18.234375 C 16.359375 -15.859375 16.992188 -14 18.265625 -12.65625 C 19.546875 -11.3125 21.117188 -10.640625 22.984375 -10.640625 C 24.835938 -10.640625 26.398438 -11.320312 27.671875 -12.6875 C 28.953125 -14.050781 29.59375 -15.898438 29.59375 -18.234375 Z M 29.59375 -18.234375 "/></g></g><g style="fill:#ffffff;fill-opacity:1;"><g transform="translate(516.694413, 404.896098)"><path style="stroke:none" d="M 1.5625 -18.234375 C 1.5625 -22.003906 2.238281 -25.296875 3.59375 -28.109375 C 4.957031 -30.921875 6.816406 -33.082031 9.171875 -34.59375 C 11.535156 -36.101562 14.171875 -36.859375 17.078125 -36.859375 C 19.578125 -36.859375 21.734375 -36.359375 23.546875 -35.359375 C 25.367188 -34.367188 26.78125 -33.03125 27.78125 -31.34375 L 27.78125 -36.40625 L 40.5 -36.40625 L 40.5 0 L 27.78125 0 L 27.78125 -5.0625 C 26.78125 -3.375 25.359375 -2.03125 23.515625 -1.03125 C 21.679688 -0.0390625 19.535156 0.453125 17.078125 0.453125 C 14.171875 0.453125 11.535156 -0.300781 9.171875 -1.8125 C 6.816406 -3.332031 4.957031 -5.507812 3.59375 -8.34375 C 2.238281 -11.175781 1.5625 -14.472656 1.5625 -18.234375 Z M 27.78125 -18.234375 C 27.78125 -20.578125 27.140625 -22.414062 25.859375 -23.75 C 24.585938 -25.09375 23.019531 -25.765625 21.15625 -25.765625 C 19.25 -25.765625 17.664062 -25.101562 16.40625 -23.78125 C 15.15625 -22.46875 14.53125 -20.617188 14.53125 -18.234375 C 14.53125 -15.898438 15.15625 -14.050781 16.40625 -12.6875 C 17.664062 -11.320312 19.25 -10.640625 21.15625 -10.640625 C 23.019531 -10.640625 24.585938 -11.3125 25.859375 -12.65625 C 27.140625 -14 27.78125 -15.859375 27.78125 -18.234375 Z M 27.78125 -18.234375 "/></g></g><g style="fill:#ffffff;fill-opacity:1;"><g transform="translate(560.832393, 404.896098)"><path style="stroke:none" d="M 10.0625 -39.78125 C 7.8125 -39.78125 6.003906 -40.394531 4.640625 -41.625 C 3.273438 -42.863281 2.59375 -44.414062 2.59375 -46.28125 C 2.59375 -48.1875 3.273438 -49.765625 4.640625 -51.015625 C 6.003906 -52.273438 7.8125 -52.90625 10.0625 -52.90625 C 12.269531 -52.90625 14.050781 -52.273438 15.40625 -51.015625 C 16.769531 -49.765625 17.453125 -48.1875 17.453125 -46.28125 C 17.453125 -44.414062 16.769531 -42.863281 15.40625 -41.625 C 14.050781 -40.394531 12.269531 -39.78125 10.0625 -39.78125 Z M 16.359375 -36.40625 L 16.359375 0 L 3.640625 0 L 3.640625 -36.40625 Z M 16.359375 -36.40625 "/></g></g><g style="fill:#ffffff;fill-opacity:1;"><g transform="translate(580.824302, 404.896098)"><path style="stroke:none" d="M 16.359375 -29.984375 C 17.785156 -32.066406 19.515625 -33.710938 21.546875 -34.921875 C 23.578125 -36.128906 25.765625 -36.734375 28.109375 -36.734375 L 28.109375 -23.171875 L 24.53125 -23.171875 C 21.757812 -23.171875 19.703125 -22.628906 18.359375 -21.546875 C 17.023438 -20.460938 16.359375 -18.582031 16.359375 -15.90625 L 16.359375 0 L 3.640625 0 L 3.640625 -36.40625 L 16.359375 -36.40625 Z M 16.359375 -29.984375 "/></g></g></g></svg>