<svg width="32" height="30" viewBox="0 0 32 30" fill="none" xmlns="http://www.w3.org/2000/svg">
<path d="M16 1.25L26.275 3.525C26.5583 3.59167 26.7917 3.74167 26.975 3.975C27.1583 4.20833 27.25 4.46667 27.25 4.75V17.225C27.25 18.4917 26.9542 19.675 26.3625 20.775C25.7708 21.875 24.95 22.775 23.9 23.475L16 28.75L8.1 23.475C7.05 22.775 6.22917 21.875 5.6375 20.775C5.04583 19.675 4.75 18.4917 4.75 17.225V4.75C4.75 4.46667 4.84167 4.20833 5.025 3.975C5.20833 3.74167 5.44167 3.59167 5.725 3.525L16 1.25ZM16 3.8L7.25 5.75V17.225C7.25 18.075 7.44583 18.8667 7.8375 19.6C8.22917 20.3333 8.775 20.9333 9.475 21.4L16 25.75L22.525 21.4C23.225 20.9333 23.7708 20.3333 24.1625 19.6C24.5542 18.8667 24.75 18.075 24.75 17.225V5.75L16 3.8ZM21.575 10.275L23.325 12.05L15.375 20L10.075 14.7L11.85 12.925L15.375 16.475L21.575 10.275Z" fill="white"/>
</svg>
