<svg width="24" height="24" viewBox="0 0 24 24" fill="none" xmlns="http://www.w3.org/2000/svg">
<path d="M16.8 4C17.8368 4 18.8032 4.27333 19.6992 4.82C20.5696 5.35333 21.2608 6.07333 21.7728 6.98C22.2976 7.91333 22.56 8.92 22.56 10V14C22.56 15.08 22.2976 16.0867 21.7728 17.02C21.2608 17.9267 20.5696 18.6467 19.6992 19.18C18.8032 19.7267 17.8368 20 16.8 20H7.2C6.1632 20 5.1968 19.7267 4.3008 19.18C3.4304 18.6467 2.7392 17.9267 2.2272 17.02C1.7024 16.0867 1.44 15.08 1.44 14V10C1.44 8.92 1.7024 7.91333 2.2272 6.98C2.7392 6.07333 3.4304 5.35333 4.3008 4.82C5.1968 4.27333 6.1632 4 7.2 4H16.8ZM16.8 6H7.2C6.5216 6 5.8976 6.17 5.328 6.51C4.7584 6.85 4.2976 7.31 3.9456 7.89C3.5936 8.47 3.3984 9.10667 3.36 9.8V14C3.36 14.7067 3.5232 15.3567 3.8496 15.95C4.176 16.5433 4.6176 17.0233 5.1744 17.39C5.7312 17.7567 6.3424 17.96 7.008 18H16.8C17.4784 18 18.1024 17.83 18.672 17.49C19.2416 17.15 19.7024 16.69 20.0544 16.11C20.4064 15.53 20.6016 14.8933 20.64 14.2V10C20.64 9.29333 20.4768 8.64333 20.1504 8.05C19.824 7.45667 19.3824 6.97667 18.8256 6.61C18.2688 6.24333 17.6576 6.04 16.992 6H16.8ZM10.08 9V11H12V13H10.08V15H8.16V13H6.24V11H8.16V9H10.08ZM17.76 13V15H15.84V13H17.76ZM15.84 9V11H13.92V9H15.84Z" fill="white"/>
</svg>
