<svg width="32" height="32" viewBox="0 0 32 32" fill="none" xmlns="http://www.w3.org/2000/svg">
<path d="M12.2 22.25C12.1 22.95 11.8458 23.5875 11.4375 24.1625C11.0292 24.7375 10.5125 25.1875 9.8875 25.5125C9.2625 25.8375 8.59167 26 7.875 26C7.15833 26 6.4875 25.8375 5.8625 25.5125C5.2375 25.1875 4.72083 24.7375 4.3125 24.1625C3.90417 23.5875 3.65 22.95 3.55 22.25H2.25V7.25C2.25 6.9 2.37083 6.60417 2.6125 6.3625C2.85417 6.12083 3.15 6 3.5 6H21C21.35 6 21.6458 6.12083 21.8875 6.3625C22.1292 6.60417 22.25 6.9 22.25 7.25V9.75H26L29.75 14.825V22.25H27.2C27.1 22.95 26.8458 23.5875 26.4375 24.1625C26.0292 24.7375 25.5125 25.1875 24.8875 25.5125C24.2625 25.8375 23.5917 26 22.875 26C22.1583 26 21.4875 25.8375 20.8625 25.5125C20.2375 25.1875 19.7208 24.7375 19.3125 24.1625C18.9042 23.5875 18.65 22.95 18.55 22.25H12.2ZM19.75 8.5H4.75V18.575C5.15 18.1583 5.62083 17.8333 6.1625 17.6C6.70417 17.3667 7.275 17.25 7.875 17.25C8.74167 17.25 9.52917 17.4792 10.2375 17.9375C10.9458 18.3958 11.475 19 11.825 19.75H18.925C19.125 19.3167 19.4 18.925 19.75 18.575V8.5ZM22.25 16H27.25V15.65L24.75 12.25H22.25V16ZM22.875 23.5C23.275 23.5 23.6375 23.3833 23.9625 23.15C24.2875 22.9167 24.5167 22.6167 24.65 22.25C24.7167 22.05 24.75 21.8417 24.75 21.625C24.75 21.1083 24.5667 20.6667 24.2 20.3C23.8333 19.9333 23.3917 19.75 22.875 19.75C22.3583 19.75 21.9167 19.9333 21.55 20.3C21.1833 20.6667 21 21.1083 21 21.625C21 21.8417 21.0333 22.05 21.1 22.25C21.2333 22.6167 21.4625 22.9167 21.7875 23.15C22.1125 23.3833 22.475 23.5 22.875 23.5ZM9.75 21.625C9.75 21.1083 9.56667 20.6667 9.2 20.3C8.83333 19.9333 8.39167 19.75 7.875 19.75C7.35833 19.75 6.91667 19.9333 6.55 20.3C6.18333 20.6667 6 21.1083 6 21.625C6 21.8417 6.03333 22.05 6.1 22.25C6.23333 22.6167 6.4625 22.9167 6.7875 23.15C7.1125 23.3833 7.475 23.5 7.875 23.5C8.275 23.5 8.6375 23.3833 8.9625 23.15C9.2875 22.9167 9.51667 22.6167 9.65 22.25C9.71667 22.05 9.75 21.8417 9.75 21.625Z" fill="white"/>
</svg>
