<svg width="24" height="24" viewBox="0 0 24 24" fill="none" xmlns="http://www.w3.org/2000/svg">
<path d="M12 22C10.6944 22 9.44642 21.74 8.25602 21.22C7.11682 20.7133 6.10242 19.9967 5.21282 19.07C4.32322 18.1433 3.63522 17.0867 3.14882 15.9C2.64962 14.66 2.40002 13.36 2.40002 12C2.40002 10.64 2.64962 9.34 3.14882 8.1C3.63522 6.91333 4.32322 5.85667 5.21282 4.93C6.10242 4.00333 7.11682 3.28667 8.25602 2.78C9.44642 2.26 10.6944 2 12 2C13.3056 2 14.5536 2.26 15.744 2.78C16.8832 3.28667 17.8976 4.00333 18.7872 4.93C19.6768 5.85667 20.3648 6.91333 20.8512 8.1C21.3504 9.34 21.6 10.64 21.6 12C21.6 13.36 21.3504 14.66 20.8512 15.9C20.3648 17.0867 19.6768 18.1433 18.7872 19.07C17.8976 19.9967 16.8832 20.7133 15.744 21.22C14.5536 21.74 13.3056 22 12 22ZM12 20C13.3952 20 14.688 19.6333 15.8784 18.9C17.0304 18.1933 17.9456 17.24 18.624 16.04C19.328 14.8 19.68 13.4533 19.68 12C19.68 10.5467 19.328 9.2 18.624 7.96C17.9456 6.76 17.0304 5.80667 15.8784 5.1C14.688 4.36667 13.3952 4 12 4C10.6048 4 9.31202 4.36667 8.12162 5.1C6.96962 5.80667 6.05442 6.76 5.37602 7.96C4.67202 9.2 4.32002 10.5467 4.32002 12C4.32002 13.4533 4.67202 14.8 5.37602 16.04C6.05442 17.24 6.96962 18.1933 8.12162 18.9C9.31202 19.6333 10.6048 20 12 20ZM8.64002 14H13.92C14.048 14 14.16 13.95 14.256 13.85C14.352 13.75 14.4 13.6333 14.4 13.5C14.4 13.3667 14.352 13.25 14.256 13.15C14.16 13.05 14.048 13 13.92 13H10.08C9.64482 13 9.24482 12.8867 8.88002 12.66C8.51522 12.4333 8.22402 12.13 8.00642 11.75C7.78882 11.37 7.68002 10.9533 7.68002 10.5C7.68002 10.0467 7.78882 9.63 8.00642 9.25C8.22402 8.87 8.51522 8.56667 8.88002 8.34C9.24482 8.11333 9.64482 8 10.08 8H11.04V6H12.96V8H15.36V10H10.08C9.95202 10 9.84002 10.05 9.74402 10.15C9.64802 10.25 9.60002 10.3667 9.60002 10.5C9.60002 10.6333 9.64802 10.75 9.74402 10.85C9.84002 10.95 9.95202 11 10.08 11H13.92C14.3552 11 14.7552 11.1133 15.12 11.34C15.4848 11.5667 15.776 11.87 15.9936 12.25C16.2112 12.63 16.32 13.0467 16.32 13.5C16.32 13.9533 16.2112 14.37 15.9936 14.75C15.776 15.13 15.4848 15.4333 15.12 15.66C14.7552 15.8867 14.3552 16 13.92 16H12.96V18H11.04V16H8.64002V14Z" fill="white"/>
</svg>
