<svg width="24" height="24" viewBox="0 0 24 24" fill="none" xmlns="http://www.w3.org/2000/svg">
<path d="M6.23995 4V20H17.7599V4H6.23995ZM5.27995 2H18.7199C18.9887 2 19.2159 2.09667 19.4015 2.29C19.5871 2.48333 19.6799 2.72 19.6799 3V21C19.6799 21.28 19.5871 21.5167 19.4015 21.71C19.2159 21.9033 18.9887 22 18.7199 22H5.27995C5.01115 22 4.78395 21.9033 4.59835 21.71C4.41275 21.5167 4.31995 21.28 4.31995 21V3C4.31995 2.72 4.41275 2.48333 4.59835 2.29C4.78395 2.09667 5.01115 2 5.27995 2ZM11.9999 17C12.2687 17 12.4959 17.0967 12.6815 17.29C12.8671 17.4833 12.9599 17.72 12.9599 18C12.9599 18.28 12.8671 18.5167 12.6815 18.71C12.4959 18.9033 12.2687 19 11.9999 19C11.7311 19 11.5039 18.9033 11.3183 18.71C11.1327 18.5167 11.0399 18.28 11.0399 18C11.0399 17.72 11.1327 17.4833 11.3183 17.29C11.5039 17.0967 11.7311 17 11.9999 17Z" fill="white"/>
</svg>
