<svg width="24" height="24" viewBox="0 0 24 24" fill="none" xmlns="http://www.w3.org/2000/svg">
<path d="M21.5999 3C21.8687 3 22.0959 3.09667 22.2815 3.29C22.4671 3.48333 22.5599 3.72 22.5599 4V20C22.5599 20.28 22.4671 20.5167 22.2815 20.71C22.0959 20.9033 21.8687 21 21.5999 21H4.31994C4.05114 21 3.82394 20.9033 3.63834 20.71C3.45274 20.5167 3.35994 20.28 3.35994 20V19H20.6399V7.3L12.9599 14.5L3.35994 5.5V4C3.35994 3.72 3.45274 3.48333 3.63834 3.29C3.82394 3.09667 4.05114 3 4.31994 3H21.5999ZM9.11994 15V17H1.43994V15H9.11994ZM6.23994 10V12H1.43994V10H6.23994ZM20.2175 5H5.70234L12.9599 11.8L20.2175 5Z" fill="white"/>
</svg>
