<svg width="24" height="24" viewBox="0 0 24 24" fill="none" xmlns="http://www.w3.org/2000/svg">
<path d="M7.20003 4V20H16.8V4H7.20003ZM6.24003 2H17.76C18.0288 2 18.256 2.09667 18.4416 2.29C18.6272 2.48333 18.72 2.72 18.72 3V21C18.72 21.28 18.6272 21.5167 18.4416 21.71C18.256 21.9033 18.0288 22 17.76 22H6.24003C5.97123 22 5.74403 21.9033 5.55843 21.71C5.37283 21.5167 5.28003 21.28 5.28003 21V3C5.28003 2.72 5.37283 2.48333 5.55843 2.29C5.74403 2.09667 5.97123 2 6.24003 2ZM12 17C12.2688 17 12.496 17.0967 12.6816 17.29C12.8672 17.4833 12.96 17.72 12.96 18C12.96 18.28 12.8672 18.5167 12.6816 18.71C12.496 18.9033 12.2688 19 12 19C11.7312 19 11.504 18.9033 11.3184 18.71C11.1328 18.5167 11.04 18.28 11.04 18C11.04 17.72 11.1328 17.4833 11.3184 17.29C11.504 17.0967 11.7312 17 12 17Z" fill="white"/>
</svg>
