<svg width="25" height="24" viewBox="0 0 25 24" fill="none" xmlns="http://www.w3.org/2000/svg">
<path d="M12.5662 4C13.667 4 14.723 4.02667 15.7342 4.08L16.2142 4.1C17.9038 4.18 19.043 4.30667 19.6318 4.48C20.0926 4.61333 20.4894 4.86 20.8222 5.22C21.155 5.58 21.379 6.00667 21.4942 6.5C21.6606 7.16667 21.7822 8.16 21.859 9.48C21.8974 10.2533 21.923 11.04 21.9358 11.84V12.16C21.923 12.96 21.8974 13.7467 21.859 14.52C21.7822 15.84 21.6606 16.8333 21.4942 17.5C21.379 17.9933 21.155 18.42 20.8222 18.78C20.4894 19.14 20.0926 19.3867 19.6318 19.52C19.043 19.6933 17.9038 19.82 16.2142 19.9L15.7342 19.92C14.723 19.96 13.667 19.9867 12.5662 20H12.1054C10.915 19.9867 9.78224 19.96 8.70704 19.92C6.87664 19.84 5.65424 19.7067 5.03984 19.52C4.57904 19.3867 4.18224 19.14 3.84944 18.78C3.51664 18.42 3.29264 17.9933 3.17744 17.5C3.01104 16.8333 2.88944 15.84 2.81264 14.52C2.77424 13.7467 2.74864 12.96 2.73584 12.16V11.84C2.74864 11.04 2.77424 10.2533 2.81264 9.48C2.88944 8.16 3.01104 7.16667 3.17744 6.5C3.29264 6.00667 3.51664 5.58 3.84944 5.22C4.18224 4.86 4.57904 4.61333 5.03984 4.48C5.65424 4.29333 6.87664 4.16 8.70704 4.08C9.76944 4.04 10.9022 4.01333 12.1054 4H12.5662ZM10.4158 8.5V15.5L16.1758 12L10.4158 8.5Z" fill="white"/>
</svg>
