<svg width="32" height="30" viewBox="0 0 32 30" fill="none" xmlns="http://www.w3.org/2000/svg">
<path d="M28.5 20.725C28.5 21.8917 28.2417 23 27.725 24.05C27.225 25.05 26.525 25.9042 25.625 26.6125C24.725 27.3209 23.7167 27.8 22.6 28.05L21.8 25.65C22.55 25.5334 23.2333 25.2584 23.85 24.825C24.4667 24.3917 24.9583 23.85 25.325 23.2H22.25C21.8 23.2 21.3833 23.0917 21 22.875C20.6167 22.6584 20.3125 22.3584 20.0875 21.975C19.8625 21.5917 19.75 21.1667 19.75 20.7V15.7C19.75 15.25 19.8625 14.8334 20.0875 14.45C20.3125 14.0667 20.6167 13.7625 21 13.5375C21.3833 13.3125 21.8 13.2 22.25 13.2H25.925C25.725 11.5834 25.1583 10.1084 24.225 8.77505C23.2917 7.44172 22.1167 6.39172 20.7 5.62505C19.2333 4.84171 17.6667 4.45005 16 4.45005C14.3333 4.45005 12.7667 4.84171 11.3 5.62505C9.88333 6.39172 8.70833 7.44172 7.775 8.77505C6.84167 10.1084 6.275 11.5834 6.075 13.2H9.75C10.2 13.2 10.6167 13.3125 11 13.5375C11.3833 13.7625 11.6875 14.0667 11.9125 14.45C12.1375 14.8334 12.25 15.25 12.25 15.7V20.7C12.25 21.1667 12.1375 21.5917 11.9125 21.975C11.6875 22.3584 11.3833 22.6584 11 22.875C10.6167 23.0917 10.2 23.2 9.75 23.2H6C5.55 23.2 5.13333 23.0917 4.75 22.875C4.36667 22.6584 4.0625 22.3584 3.8375 21.975C3.6125 21.5917 3.5 21.1667 3.5 20.7V14.45C3.5 12.7667 3.825 11.15 4.475 9.60005C5.10833 8.10005 6.00417 6.77505 7.1625 5.62505C8.32083 4.47505 9.64167 3.58338 11.125 2.95005C12.675 2.28338 14.3 1.95005 16 1.95005C17.7 1.95005 19.325 2.28338 20.875 2.95005C22.3583 3.58338 23.6792 4.47505 24.8375 5.62505C25.9958 6.77505 26.8917 8.10005 27.525 9.60005C28.175 11.15 28.5 12.7667 28.5 14.45V20.725ZM26 20.7V15.7H22.25V20.7H26ZM6 15.7V20.7H9.75V15.7H6Z" fill="white"/>
</svg>
