<svg width="32" height="32" viewBox="0 0 32 32" fill="none" xmlns="http://www.w3.org/2000/svg">
<path d="M16 28.5C14.3 28.5 12.675 28.175 11.125 27.525C9.64167 26.8917 8.32083 25.9958 7.1625 24.8375C6.00417 23.6792 5.10833 22.3583 4.475 20.875C3.825 19.325 3.5 17.7 3.5 16C3.5 14.3 3.825 12.675 4.475 11.125C5.10833 9.64167 6.00417 8.32083 7.1625 7.1625C8.32083 6.00417 9.64167 5.10833 11.125 4.475C12.675 3.825 14.3 3.5 16 3.5C17.7 3.5 19.325 3.825 20.875 4.475C22.3583 5.10833 23.6792 6.00417 24.8375 7.1625C25.9958 8.32083 26.8917 9.64167 27.525 11.125C28.175 12.675 28.5 14.3 28.5 16C28.5 17.7 28.175 19.325 27.525 20.875C26.8917 22.3583 25.9958 23.6792 24.8375 24.8375C23.6792 25.9958 22.3583 26.8917 20.875 27.525C19.325 28.175 17.7 28.5 16 28.5ZM16 26C17.8167 26 19.5 25.5417 21.05 24.625C22.55 23.7417 23.7417 22.55 24.625 21.05C25.5417 19.5 26 17.8167 26 16C26 14.1833 25.5417 12.5 24.625 10.95C23.7417 9.45 22.55 8.25833 21.05 7.375C19.5 6.45833 17.8167 6 16 6C14.1833 6 12.5 6.45833 10.95 7.375C9.45 8.25833 8.25833 9.45 7.375 10.95C6.45833 12.5 6 14.1833 6 16C6 17.8167 6.45833 19.5 7.375 21.05C8.25833 22.55 9.45 23.7417 10.95 24.625C12.5 25.5417 14.1833 26 16 26ZM17.25 16H22.25V18.5H14.75V9.75H17.25V16Z" fill="white"/>
</svg>
