<svg width="32" height="30" viewBox="0 0 32 30" fill="none" xmlns="http://www.w3.org/2000/svg">
<path d="M17.5 3.29995L21.55 10.325C21.7333 10.625 21.7792 10.9416 21.6875 11.275C21.5958 11.6083 21.4 11.8583 21.1 12.025L19.475 12.975L20.725 15.15L18.55 16.4L17.3 14.225L15.7 15.15C15.4 15.3333 15.0833 15.3791 14.75 15.2875C14.4167 15.1958 14.1583 15 13.975 14.7L11.675 10.725C10.825 10.9916 10.0667 11.4166 9.4 12C8.73333 12.5833 8.20833 13.2833 7.825 14.1C7.44167 14.9166 7.25 15.7833 7.25 16.7C7.25 17.4666 7.38333 18.2083 7.65 18.925C8.66667 18.275 9.78333 17.95 11 17.95C12.0333 17.95 12.9958 18.1875 13.8875 18.6625C14.7792 19.1375 15.5167 19.7833 16.1 20.6L25.7 15.05L26.95 17.2L17.1 22.9C17.2 23.3333 17.25 23.7666 17.25 24.2C17.25 24.6333 17.2083 25.05 17.125 25.45H27.25V27.95H6C5.6 27.4166 5.29167 26.8333 5.075 26.2C4.85833 25.5666 4.75 24.9 4.75 24.2C4.75 22.9666 5.09167 21.8333 5.775 20.8C5.09167 19.5166 4.75 18.15 4.75 16.7C4.75 15.4833 4.99167 14.3166 5.475 13.2C5.95833 12.1166 6.625 11.1708 7.475 10.3625C8.325 9.55412 9.3 8.94162 10.4 8.52495L9.925 7.67495C9.69167 7.27495 9.575 6.85412 9.575 6.41245C9.575 5.97079 9.6875 5.55829 9.9125 5.17495C10.1375 4.79162 10.4417 4.48329 10.825 4.24995L14.075 2.37495C14.475 2.14162 14.8958 2.02912 15.3375 2.03745C15.7792 2.04579 16.1917 2.15829 16.575 2.37495C16.9583 2.59162 17.2667 2.89995 17.5 3.29995ZM11 20.45C10.3167 20.45 9.6875 20.6208 9.1125 20.9625C8.5375 21.3041 8.08333 21.7625 7.75 22.3375C7.41667 22.9125 7.25 23.5333 7.25 24.2C7.25 24.6333 7.325 25.05 7.475 25.45H14.525C14.675 25.05 14.75 24.6333 14.75 24.2C14.75 23.5333 14.5833 22.9125 14.25 22.3375C13.9167 21.7625 13.4625 21.3041 12.8875 20.9625C12.3125 20.6208 11.6833 20.45 11 20.45ZM15.325 4.54995L12.075 6.42495L15.525 12.375L18.775 10.5L15.325 4.54995Z" fill="white"/>
</svg>
