<svg width="32" height="30" viewBox="0 0 32 30" fill="none" xmlns="http://www.w3.org/2000/svg">
<path d="M22.25 19.3V27.875C22.25 28.0583 22.1875 28.2083 22.0625 28.325C21.9375 28.4416 21.7917 28.5 21.625 28.5C21.5083 28.5 21.4 28.475 21.3 28.425L16 25.25L10.7 28.425C10.55 28.5083 10.3917 28.5291 10.225 28.4875C10.0583 28.4458 9.93333 28.35 9.85 28.2C9.78333 28.1 9.75 27.9916 9.75 27.875V19.3C8.58333 18.3666 7.675 17.2333 7.025 15.9C6.34167 14.5166 6 13.05 6 11.5C6 9.6833 6.45833 7.99997 7.375 6.44997C8.25833 4.9333 9.45 3.7333 10.95 2.84997C12.5 1.94997 14.1833 1.49997 16 1.49997C17.8167 1.49997 19.5 1.94997 21.05 2.84997C22.55 3.7333 23.7417 4.9333 24.625 6.44997C25.5417 7.99997 26 9.6833 26 11.5C26 13.05 25.6583 14.5166 24.975 15.9C24.325 17.2333 23.4167 18.3666 22.25 19.3ZM12.25 20.75V24.575L16 22.325L19.75 24.575V20.75C18.55 21.25 17.3 21.5 16 21.5C14.7 21.5 13.45 21.2583 12.25 20.775V20.75ZM16 19C17.35 19 18.6083 18.6583 19.775 17.975C20.9083 17.3083 21.8083 16.4083 22.475 15.275C23.1583 14.1083 23.5 12.8458 23.5 11.4875C23.5 10.1291 23.1583 8.86663 22.475 7.69997C21.8083 6.56664 20.9083 5.67497 19.775 5.02497C18.6083 4.34163 17.35 3.99997 16 3.99997C14.65 3.99997 13.3917 4.34163 12.225 5.02497C11.0917 5.67497 10.1917 6.56664 9.525 7.69997C8.84167 8.86663 8.5 10.1291 8.5 11.4875C8.5 12.8458 8.84167 14.1083 9.525 15.275C10.1917 16.4083 11.0917 17.3083 12.225 17.975C13.3917 18.6583 14.65 19 16 19Z" fill="white"/>
</svg>
